<svg xmlns="http://www.w3.org/2000/svg" width="18" height="18" viewBox="0 0 18 18">
    <g fill="none" fill-rule="evenodd">
        <g fill="#EF8059" fill-rule="nonzero">
            <g>
                <g>
                    <g>
                        <path d="M9 17.1C4.526 17.1.9 13.474.9 9S4.526.9 9 .9s8.1 3.626 8.1 8.1-3.626 8.1-8.1 8.1zm2.752-6.312c.267.26.694.255.954-.012s.255-.694-.012-.954l-3.231-3.15c-.263-.256-.68-.256-.943 0L5.29 9.822c-.267.26-.273.687-.012.954.26.267.687.273.954.012l2.76-2.69 2.76 2.69z" transform="translate(-267 -121) translate(0 109) translate(267 12)"/>
                    </g>
                </g>
            </g>
        </g>
    </g>
</svg>
