<svg xmlns="http://www.w3.org/2000/svg" width="90" height="82" viewBox="0 0 90 82">
    <g fill="none" fill-rule="evenodd">
        <g fill-rule="nonzero">
            <g>
                <g>
                    <g>
                        <path fill="#BBBFCA" d="M1.714 59.143H10.285V67.714H1.714zM46.286 59.143H54.857V67.714H46.286zM12.857 59.143H21.427999999999997V67.714H12.857zM57.429 59.143H66V67.714H57.429zM68.571 59.143H77.142V67.714H68.571z" transform="translate(-1544 -611) translate(1282 283) translate(262 328)"/>
                        <path fill="#DADCE3" d="M1.714 36.857H10.285V45.428H1.714zM46.286 36.857H54.857V45.428H46.286z" transform="translate(-1544 -611) translate(1282 283) translate(262 328)"/>
                        <path fill="#BBBFCA" d="M1.714 70.286H10.285V78.857H1.714zM46.286 70.286H54.857V78.857H46.286zM12.857 70.286H21.427999999999997V78.857H12.857zM57.429 70.286H66V78.857H57.429zM68.571 70.286H77.142V78.857H68.571zM35.143 70.286H43.714V78.857H35.143zM24 70.286H32.571V78.857H24zM79.714 70.286H88.285V78.857H79.714z" transform="translate(-1544 -611) translate(1282 283) translate(262 328)"/>
                        <path fill="#DADCE3" d="M1.714 48H10.285V56.571H1.714zM46.286 48H54.857V56.571H46.286zM12.857 48H21.427999999999997V56.571H12.857zM57.429 48H66V56.571H57.429zM68.571 48H77.142V56.571H68.571zM35.143 59.143H43.714V67.714H35.143zM24 59.143H32.571V67.714H24zM79.714 59.143H88.285V67.714H79.714z" transform="translate(-1544 -611) translate(1282 283) translate(262 328)"/>
                        <path fill="#F1F2F3" d="M1.714 3.429H10.285V12H1.714zM46.286 3.429H54.857V12H46.286zM12.857 25.714H21.427999999999997V34.285H12.857zM57.429 25.714H66V34.285H57.429zM68.571 25.714H77.142V34.285H68.571zM35.143 36.857H43.714V45.428H35.143zM24 48H32.571V56.571H24zM79.714 48H88.285V56.571H79.714z" transform="translate(-1544 -611) translate(1282 283) translate(262 328)"/>
                        <path fill="#E8E8E8" d="M1.714 25.714H10.285V34.285H1.714zM46.286 25.714H54.857V34.285H46.286zM12.857 36.857H21.427999999999997V45.428H12.857zM57.429 36.857H66V45.428H57.429zM68.571 36.857H77.142V45.428H68.571zM35.143 48H43.714V56.571H35.143zM1.714 14.571H10.285V23.142H1.714zM46.286 14.571H54.857V23.142H46.286z" transform="translate(-1544 -611) translate(1282 283) translate(262 328)"/>
                    </g>
                </g>
            </g>
        </g>
    </g>
</svg>
