<svg xmlns="http://www.w3.org/2000/svg" width="18" height="18" viewBox="0 0 18 18">
    <g fill="none" fill-rule="evenodd">
        <g fill="#707B91" fill-rule="nonzero">
            <g>
                <g>
                    <g>
                        <path d="M11.003 12.722H6.997c-.621 0-1.147-.369-1.147-.86v-.35c0-1.22 1.33-2.09 3.074-2.125l.035.001h.082l.05-.002c1.729.036 3.059.906 3.059 2.125v.351c0 .491-.526.86-1.147.86zM7.147 7.164c0-1.023.83-1.854 1.853-1.854 1.023 0 1.853.831 1.853 1.854 0 .983-.77 1.796-1.767 1.852h-.193c-.976-.056-1.746-.869-1.746-1.852z" transform="translate(-20 -513) translate(0 501) translate(20 12)"/>
                        <g>
                            <path d="M17.49 10.39c-.346 0-.647.235-.732.57-.19.753-.488 1.473-.887 2.141-.177.296-.13.675.114.919.2.2.2.522 0 .722l-1.245 1.245c-.199.198-.52.198-.72 0-.244-.245-.624-.292-.921-.114-.668.4-1.388.698-2.14.887-.336.084-.57.385-.57.73 0 .282-.229.51-.51.51H8.12c-.281 0-.509-.228-.509-.51 0-.345-.235-.646-.57-.73-.753-.19-1.473-.488-2.14-.887-.298-.178-.678-.13-.922.114-.199.198-.52.198-.72 0l-1.244-1.245c-.2-.2-.2-.523 0-.722.244-.244.29-.623.114-.919-.4-.668-.698-1.388-.888-2.14-.084-.336-.386-.57-.732-.57-.28 0-.508-.228-.508-.509V8.118c0-.28.228-.508.508-.508.346 0 .648-.235.732-.57.19-.753.488-1.473.888-2.141.177-.296.13-.675-.114-.919-.2-.2-.2-.522 0-.722l1.245-1.245c.198-.198.52-.198.719 0 .244.245.624.292.921.114.668-.4 1.388-.698 2.14-.887.336-.085.571-.386.571-.73 0-.282.228-.51.51-.51h1.76c.28 0 .508.228.508.51 0 .344.235.646.57.73.753.19 1.473.488 2.141.887.297.178.677.13.922-.114.198-.198.52-.198.719 0l1.245 1.245c.2.2.2.523 0 .722-.244.244-.291.623-.114.919.4.668.698 1.388.887 2.14.085.336.386.57.732.57.28 0 .508.228.508.509v1.764c0 .28-.227.508-.508.508zM9 14.85c3.23 0 5.85-2.62 5.85-5.85 0-3.23-2.62-5.85-5.85-5.85-3.23 0-5.85 2.62-5.85 5.85 0 3.23 2.62 5.85 5.85 5.85z" transform="translate(-20 -513) translate(0 501) translate(20 12)"/>
                        </g>
                    </g>
                </g>
            </g>
        </g>
    </g>
</svg>
