<svg xmlns="http://www.w3.org/2000/svg" width="20" height="20" viewBox="0 0 20 20">
    <g fill="none" fill-rule="evenodd">
        <g fill="#707B91" fill-rule="nonzero">
            <g>
                <g>
                    <g>
                        <g>
                            <path d="M12.515 18h-9.73C1.277 18 0 17.105 0 15.913v-.853C0 12.1 3.23 9.986 7.465 9.9c.024.002.039.003.085.004h.2l.123-.004c4.197.086 7.427 2.2 7.427 5.16v.853c0 1.192-1.277 2.087-2.785 2.087zM3.15 4.503C3.15 2.02 5.167 0 7.65 0s4.5 2.019 4.5 4.503c0 2.387-1.87 4.36-4.292 4.497H7.65l-.26-.001C5.02 8.864 3.15 6.89 3.15 4.503z" transform="translate(-1192 -517) translate(1150 318) translate(30 187) translate(12 12) translate(2 1)"/>
                        </g>
                    </g>
                </g>
            </g>
        </g>
    </g>
</svg>
