<svg xmlns="http://www.w3.org/2000/svg" width="70" height="80" viewBox="0 0 70 80">
    <g fill="none" fill-rule="evenodd" opacity=".703">
        <g fill="#FFF" fill-rule="nonzero">
            <g>
                <g>
                    <g>
                        <g>
                            <path d="M8.212 12.166h23.114c.43 0 .84-.183 1.129-.502.289-.317.429-.745.386-1.171l-.912-9.124C31.853.593 31.196 0 30.414 0H9.124C8.343 0 7.69.593 7.61 1.369l-.913 9.124c-.042.429.098.855.386 1.17.29.32.7.503 1.129.503zM31.326 57.787H8.212c-.429 0-.84.182-1.129.502-.289.316-.428.745-.386 1.17l.913 9.125c.076.775.733 1.368 1.514 1.368h21.29c.782 0 1.436-.593 1.515-1.368l.912-9.124c.043-.43-.097-.855-.386-1.171-.29-.32-.7-.502-1.129-.502zM41.06 30.414c.838 0 1.52-.681 1.52-1.52v-3.042c0-.84-.682-1.52-1.52-1.52-.84 0-1.522.68-1.522 1.52v-3.041c0-4.191-3.412-7.604-7.603-7.604H7.603C3.413 15.207 0 18.62 0 22.811v24.33c0 4.192 3.412 7.604 7.603 7.604h24.332c4.19 0 7.603-3.412 7.603-7.603V44.1c0 .839.682 1.52 1.521 1.52.84 0 1.52-.681 1.52-1.52v-3.042c0-.84-.68-1.52-1.52-1.52s-1.52.68-1.52 1.52V28.893c0 .84.68 1.521 1.52 1.521z" transform="translate(-1578 -101) translate(325 85) translate(1064) translate(189 16) translate(14 5)"/>
                        </g>
                    </g>
                </g>
            </g>
        </g>
    </g>
</svg>
