<svg xmlns="http://www.w3.org/2000/svg" width="70" height="80" viewBox="0 0 70 80">
    <g fill="none" fill-rule="evenodd" opacity=".703">
        <g fill="#FFF" fill-rule="nonzero">
            <g>
                <g>
                    <g>
                        <g>
                            <path d="M8.212 12.166h23.114c.43 0 .84-.183 1.129-.502.289-.317.429-.745.386-1.171l-.912-9.124C31.853.593 31.196 0 30.414 0H9.124C8.343 0 7.69.593 7.61 1.369l-.913 9.124c-.042.429.098.855.386 1.17.29.32.7.503 1.129.503zM31.326 57.787H8.212c-.429 0-.84.182-1.129.502-.289.316-.428.745-.386 1.17l.913 9.125c.076.775.733 1.368 1.514 1.368h21.29c.782 0 1.436-.593 1.515-1.368l.912-9.124c.043-.43-.097-.855-.386-1.171-.29-.32-.7-.502-1.129-.502zM41.06 30.414c.838 0 1.52-.681 1.52-1.52v-3.042c0-.84-.682-1.52-1.52-1.52-.84 0-1.522.68-1.522 1.52v-3.041c0-4.191-3.412-7.604-7.603-7.604H7.603C3.413 15.207 0 18.62 0 22.811v24.33c0 4.192 3.412 7.604 7.603 7.604h24.332c4.19 0 7.603-3.412 7.603-7.603V44.1c0 .839.682 1.52 1.521 1.52.84 0 1.52-.681 1.52-1.52v-3.042c0-.84-.68-1.52-1.52-1.52s-1.52.68-1.52 1.52V28.893c0 .84.68 1.521 1.52 1.521zm-7.766 5.244l-3.041 6.082c-.292.587-.93.919-1.585.825-.65-.098-1.165-.606-1.274-1.257l-1.84-11.034-4.31 17.236c-.17.678-.775 1.153-1.475 1.153-.7 0-1.305-.475-1.475-1.153L14.915 34l-2.847 7.594c-.213.566-.742.952-1.344.986-.6.048-1.17-.298-1.442-.84l-3.041-6.083c-.377-.75-.07-1.663.681-2.04.751-.375 1.664-.07 2.041.68l1.481 2.966 3.337-8.902c.234-.623.84-1.007 1.511-.982.666.036 1.23.504 1.39 1.15l3.087 12.347 4.608-18.43c.173-.7.77-1.22 1.536-1.15.72.027 1.32.56 1.438 1.268l2.272 13.635.952-1.901c.377-.751 1.29-1.053 2.041-.682.751.375 1.055 1.29.678 2.042z" transform="translate(-1046 -101) translate(325 85) translate(532) translate(189 16) translate(14 5)"/>
                        </g>
                    </g>
                </g>
            </g>
        </g>
    </g>
</svg>
