<svg xmlns="http://www.w3.org/2000/svg" width="72" height="72" viewBox="0 0 72 72">
    <g fill="none" fill-rule="evenodd">
        <g fill="#5BBF66" fill-rule="nonzero">
            <g>
                <g>
                    <path d="M36 71C16.718 71 1 55.303 1 36.045 1 16.775 16.73 1 36 1c19.298 0 35 15.713 35 35.045C71 55.364 55.311 71 36 71zm0-4.33c16.89 0 30.67-13.668 30.67-30.625C66.67 19.09 52.89 5.33 36 5.33S5.33 19.18 5.33 36.045C5.33 52.911 19.11 66.67 36 66.67z" transform="translate(-1319 -402) translate(1150 328) translate(169 74)"/>
                    <path d="M25.809 34.58c-.817-.922-2.221-1.004-3.137-.182-.917.822-.997 2.236-.181 3.159l7.86 8.88c.883.998 2.434.998 3.317 0L49.51 28.54c.816-.922.736-2.337-.18-3.159-.917-.822-2.321-.74-3.138.182L32.01 41.586l-6.201-7.006z" transform="translate(-1319 -402) translate(1150 328) translate(169 74)"/>
                </g>
            </g>
        </g>
    </g>
</svg>
