<svg xmlns="http://www.w3.org/2000/svg" width="20" height="20" viewBox="0 0 20 20">
    <g fill="none" fill-rule="evenodd">
        <g fill="#9BA4B4" fill-rule="nonzero">
            <g>
                <g>
                    <g>
                        <path d="M6.388 11.972l1.034-1.034c-.058-.219-.089-.448-.089-.686 0-1.474 1.191-2.666 2.667-2.666.237 0 .467.03.686.089L11.72 6.64c-.521-.25-1.104-.389-1.72-.389-2.208 0-4 1.792-4 4 0 .616.14 1.2.388 1.72zm-2.46 2.46c-1.246-.992-2.243-2.285-2.856-3.805-.096-.241-.096-.51 0-.748 1.439-3.57 4.957-5.96 8.928-5.96 1.303 0 2.55.269 3.695.747l1.471-1.471c.26-.26.683-.26.943 0 .26.26.26.683 0 .943l-7.837 7.836-.161.162-4.258 4.257c-.261.26-.684.26-.944 0-.26-.26-.26-.682 0-.942l1.018-1.018zm4.167-4.166l1.919-1.919H10c-1.055 0-1.905.85-1.905 1.905v.014zm3.81-.014c0-.008-.003-.014-.003-.022l.664-.664c.059.22.1.448.1.686 0 1.475-1.19 2.667-2.667 2.667-.238 0-.465-.042-.685-.1l.664-.664.021.001c1.055 0 1.906-.85 1.906-1.904zm2.095 0c0-.617-.152-1.194-.403-1.718l2.466-2.466c1.243 1 2.25 2.288 2.863 3.81.099.24.099.508 0 .749-1.437 3.57-4.956 5.958-8.926 5.958-1.306 0-2.55-.28-3.7-.753l1.981-1.981c.524.25 1.101.401 1.719.401 2.208 0 4-1.792 4-4z" transform="translate(-1495 -586) translate(1150 318) translate(30 256) translate(315 12)"/>
                    </g>
                </g>
            </g>
        </g>
    </g>
</svg>
