<svg xmlns="http://www.w3.org/2000/svg" width="18" height="18" viewBox="0 0 18 18">
    <g fill="none" fill-rule="evenodd">
        <g fill="#707B91" fill-rule="nonzero">
            <g>
                <g>
                    <g>
                        <g>
                            <g>
                                <path d="M11.263 16.2H2.507C1.149 16.2 0 15.394 0 14.322v-.768c0-2.665 2.907-4.567 6.719-4.643.021.001.035.002.076.002h.18c.041 0 .055 0 .11-.003 3.778.077 6.685 1.98 6.685 4.644v.768c0 1.072-1.15 1.878-2.507 1.878zM2.835 4.053C2.835 1.817 4.65 0 6.885 0s4.05 1.817 4.05 4.053c0 2.148-1.684 3.924-3.863 4.047h-.187l-.233-.001C4.519 7.977 2.835 6.2 2.835 4.053z" transform="translate(-20 -121) translate(0 109) translate(20 12) translate(1.8 .9)"/>
                            </g>
                        </g>
                    </g>
                </g>
            </g>
        </g>
    </g>
</svg>
