<svg xmlns="http://www.w3.org/2000/svg" width="20" height="20" viewBox="0 0 20 20">
    <g fill="none" fill-rule="evenodd">
        <g fill="#707B91" fill-rule="nonzero">
            <g>
                <g>
                    <g>
                        <path d="M6.481 8h7.038V6c0-1.94-1.579-3.519-3.519-3.519C8.06 2.481 6.481 4.06 6.481 6v2zM15 8c1.105 0 2 .895 2 2v7c0 1.105-.895 2-2 2H5c-1.105 0-2-.895-2-2v-7c0-1.105.895-2 2-2V6c0-2.758 2.242-5 5-5s5 2.242 5 5v2zm-5.763 6.287v.965c0 .42.34.76.761.76.42 0 .76-.34.76-.76v-.965c.455-.263.761-.754.761-1.317 0-.84-.68-1.522-1.521-1.522-.84 0-1.521.681-1.521 1.522 0 .563.306 1.054.76 1.317z" transform="translate(-1192 -586) translate(1150 318) translate(30 256) translate(12 12)"/>
                    </g>
                </g>
            </g>
        </g>
    </g>
</svg>
