<svg xmlns="http://www.w3.org/2000/svg" width="24" height="24" viewBox="0 0 24 24">
    <g fill="none" fill-rule="evenodd">
        <g fill="#707B91" fill-rule="nonzero">
            <g>
                <g>
                    <g>
                        <path d="M21.6 12.59V9.01l-2.632-.558c-.176-.615-.422-1.207-.734-1.765l1.468-2.257-2.53-2.531-2.258 1.468c-.558-.313-1.15-.56-1.766-.733L12.59 0H9.011l-.56 2.632c-.614.176-1.206.422-1.764.734L4.43 1.898l-2.531 2.53 1.468 2.258c-.312.558-.558 1.15-.734 1.765L0 9.011v3.578l2.634.56c.173.614.419 1.207.731 1.764L1.897 17.17l2.53 2.531 2.258-1.468c.558.312 1.15.558 1.765.734l.56 2.633h3.58l.558-2.634c.615-.175 1.207-.42 1.765-.731l2.257 1.468 2.531-2.53-1.468-2.258c.312-.559.558-1.152.733-1.767l2.634-.559zm-10.798 2.867c-2.573.001-4.659-2.083-4.66-4.655 0-2.573 2.084-4.659 4.656-4.66 2.573 0 4.659 2.084 4.66 4.656 0 2.572-2.084 4.658-4.656 4.66z" transform="translate(-1334 -90) translate(857 84) translate(477 6) translate(1.2 1.2)"/>
                    </g>
                </g>
            </g>
        </g>
    </g>
</svg>
