<svg xmlns="http://www.w3.org/2000/svg" width="16" height="16" viewBox="0 0 16 16">
    <g fill="none" fill-rule="evenodd">
        <g fill="#707B91" fill-rule="nonzero">
            <g>
                <g>
                    <g>
                        <g>
                            <g>
                                <path d="M12 2.4h1.2c1.105 0 2 .895 2 2v1.2H.8V4.4c0-1.105.895-2 2-2H4v-.8c0-.442.358-.8.8-.8.442 0 .8.358.8.8v.8h4.8v-.8c0-.442.358-.8.8-.8.442 0 .8.358.8.8v.8zM.8 6.4h14.4v6.8c0 1.105-.895 2-2 2H2.8c-1.105 0-2-.895-2-2V6.4zM5.4 12c-.331 0-.6.269-.6.6 0 .331.269.6.6.6h5.2c.331 0 .6-.269.6-.6 0-.331-.269-.6-.6-.6H5.4zm0-3.6c-.331 0-.6.269-.6.6 0 .331.269.6.6.6h5.2c.331 0 .6-.269.6-.6 0-.331-.269-.6-.6-.6H5.4z" transform="translate(-1329 -110) translate(1122 85) translate(20 15) translate(43) translate(144 10)"/>
                            </g>
                        </g>
                    </g>
                </g>
            </g>
        </g>
    </g>
</svg>
