<svg xmlns="http://www.w3.org/2000/svg" width="70" height="80" viewBox="0 0 70 80">
    <g fill="none" fill-rule="evenodd" opacity=".701">
        <g fill="#FFF" fill-rule="nonzero">
            <g>
                <g>
                    <g>
                        <g transform="translate(-732 -101) translate(325 85) translate(407 16) translate(7 10)">
                            <path d="M14.222 34.387c0-3.1 1.023-5.962 2.744-8.276-1.802-1.62-4.178-2.614-6.79-2.614C4.555 23.497 0 28.053 0 33.672c0 0 2.394 21.38 10.175 21.38 3.007 0 5.207-3.197 6.778-7.115-1.833-6.032-2.574-12.053-2.72-13.35l-.011-.2zM10.175 22.76c3.404 0 6.366-1.894 7.891-4.684-1.523-2.069-2.428-4.618-2.428-7.378 0-1.252.19-2.46.535-3.602-1.591-1.429-3.69-2.308-5.998-2.308-4.962 0-8.985 4.024-8.985 8.987 0 4.961 4.023 8.985 8.985 8.985zM46.088 23.497c-2.613 0-4.988.994-6.791 2.614 1.722 2.314 2.744 5.176 2.744 8.276l-.011.2c-.146 1.297-.887 7.317-2.72 13.35 1.57 3.918 3.77 7.114 6.778 7.114 7.781 0 10.175-21.38 10.175-21.38 0-5.618-4.556-10.174-10.175-10.174zM38.198 18.075c1.525 2.79 4.485 4.684 7.89 4.684 4.963 0 8.986-4.023 8.986-8.985s-4.024-8.986-8.986-8.986c-2.308 0-4.406.878-5.997 2.308.344 1.142.535 2.35.535 3.602-.001 2.76-.906 5.309-2.428 7.377z"/>
                            <path d="M28.132 22.273c-6.69 0-12.114 5.424-12.114 12.114 0 0 2.85 25.453 12.114 25.453 9.263 0 12.113-25.453 12.113-25.453 0-6.69-5.423-12.114-12.113-12.114z"/>
                            <circle cx="28.132" cy="10.698" r="10.698"/>
                        </g>
                    </g>
                </g>
            </g>
        </g>
    </g>
</svg>
