<svg xmlns="http://www.w3.org/2000/svg" width="18" height="18" viewBox="0 0 18 18">
    <g fill="none" fill-rule="evenodd">
        <g fill="#707B91" fill-rule="nonzero">
            <g>
                <g>
                    <g>
                        <g>
                            <path d="M17.473 5.273h-.598V1.582c0-.291-.236-.527-.527-.527-.292 0-.528.236-.528.527v3.691h-1.054V2.637c0-.292-.236-.528-.528-.528-.291 0-.527.236-.527.528v2.636h-1.055V3.691c0-.29-.236-.527-.527-.527-.291 0-.527.236-.527.527v1.582h-.528c-.291 0-.527.237-.527.528 0 .291.236.527.527.527h6.399c.29 0 .527-.236.527-.527 0-.291-.236-.528-.527-.528z" transform="translate(-20 -429) translate(0 417) translate(20 12) translate(0 .9)"/>
                            <path d="M16.348 7.383H9.492V.527c0-.29-.236-.527-.527-.527C5.73 0 2.85 1.954 1.642 4.913l7.49 2.497c.323.107.461.49.28.78l-4.184 6.694c1.145.614 2.426.936 3.737.936 4.372 0 7.91-3.537 7.91-7.91 0-.29-.236-.527-.527-.527z" transform="translate(-20 -429) translate(0 417) translate(20 12) translate(0 .9)"/>
                            <path d="M.855 5.763c-.302-.101-.623.087-.684.398C.057 6.734 0 7.319 0 7.91c0 2.772 1.267 5.288 3.3 6.947.247.202.613.14.78-.128l4.083-6.531L.855 5.763z" transform="translate(-20 -429) translate(0 417) translate(20 12) translate(0 .9)"/>
                        </g>
                    </g>
                </g>
            </g>
        </g>
    </g>
</svg>
