<svg xmlns="http://www.w3.org/2000/svg" width="18" height="18" viewBox="0 0 18 18">
    <g fill="none" fill-rule="evenodd">
        <g fill="#707B91" fill-rule="nonzero">
            <g>
                <g>
                    <g>
                        <path d="M9 17.1C4.526 17.1.9 13.474.9 9S4.526.9 9 .9s8.1 3.626 8.1 8.1-3.626 8.1-8.1 8.1zm2.752-9.888l-2.76 2.69-2.76-2.69c-.268-.26-.695-.255-.955.012s-.255.694.012.954l3.231 3.15c.262.256.68.256.943 0l3.231-3.15c.267-.26.272-.687.012-.954-.26-.267-.687-.273-.954-.012z" transform="translate(-267 -428) translate(0 417) translate(267 11)"/>
                    </g>
                </g>
            </g>
        </g>
    </g>
</svg>
