<svg xmlns="http://www.w3.org/2000/svg" width="20" height="20" viewBox="0 0 20 20">
    <g fill="none" fill-rule="evenodd">
        <g fill="#9BA4B4" fill-rule="nonzero">
            <g>
                <g>
                    <g>
                        <path d="M10 3.5c3.97 0 7.489 2.39 8.928 5.96.096.24.096.507 0 .747-1.439 3.57-4.957 5.96-8.928 5.96-3.97 0-7.489-2.39-8.928-5.96-.096-.24-.096-.508 0-.747C2.511 5.89 6.03 3.5 10 3.5zm0 10.333c2.208 0 4-1.792 4-4s-1.792-4-4-4-4 1.792-4 4 1.792 4 4 4zm0-6.666c1.475 0 2.667 1.191 2.667 2.666 0 1.475-1.192 2.667-2.667 2.667-1.475 0-2.667-1.192-2.667-2.667 0-1.475 1.192-2.666 2.667-2.666zm0 .762c-1.054 0-1.905.85-1.905 1.904 0 1.055.85 1.905 1.905 1.905 1.054 0 1.905-.85 1.905-1.905 0-1.054-.85-1.904-1.905-1.904z" transform="translate(-1495 -529) translate(1150 330) translate(30 187) translate(315 12)"/>
                    </g>
                </g>
            </g>
        </g>
    </g>
</svg>
