<svg width="18" height="18" xmlns="http://www.w3.org/2000/svg">

 <g>
  <title>background</title>
  <rect fill="none" id="canvas_background" height="402" width="582" y="-1" x="-1"/>
 </g>
 <g>
  <title>Layer 1</title>
  <path fill="#ef8059" transform="rotate(180 9,9) " id="svg_6" d="m9,17.1c-4.474,0 -8.1,-3.626 -8.1,-8.1s3.626,-8.1 8.1,-8.1s8.1,3.626 8.1,8.1s-3.626,8.1 -8.1,8.1zm2.752,-6.312c0.267,0.26 0.694,0.255 0.954,-0.012s0.255,-0.694 -0.012,-0.954l-3.231,-3.15c-0.263,-0.256 -0.68,-0.256 -0.943,0l-3.23,3.15c-0.267,0.26 -0.273,0.687 -0.012,0.954c0.26,0.267 0.687,0.273 0.954,0.012l2.76,-2.69l2.76,2.69z"/>
 </g>
</svg>